<svg xmlns="http://www.w3.org/2000/svg" viewBox="0 0 1600 900" role="img">
  <defs>
    <linearGradient id="bg" x1="0" y1="0" x2="1" y2="1">
      <stop offset="0%" stop-color="#0f111a"/>
      <stop offset="100%" stop-color="#181b26"/>
    </linearGradient>
    <linearGradient id="accent" x1="0" y1="0" x2="1" y2="1">
      <stop offset="0%" stop-color="#87c5a4"/>
      <stop offset="100%" stop-color="#8ea9e8"/>
    </linearGradient>
  </defs>
  <rect width="1600" height="900" fill="url(#bg)"/>
  <circle cx="1330" cy="170" r="210" fill="#87c5a4" fill-opacity="0.10"/>
  <circle cx="1440" cy="760" r="180" fill="#87c5a4" fill-opacity="0.07"/>
  <circle cx="220" cy="760" r="140" fill="#8d82c4" fill-opacity="0.10"/>
  <rect x="120" y="130" width="250" height="44" rx="22" fill="#9bf1ff" fill-opacity="0.14" stroke="#9bf1ff" stroke-opacity="0.5"/>
  <text x="145" y="159" fill="#9bf1ff" font-family="Arial, Helvetica, sans-serif" font-size="24" font-weight="700">AO Labs Project</text>
  <text x="120" y="300" fill="#ffffff" font-family="Arial, Helvetica, sans-serif" font-size="86" font-weight="800">Fish</text>
  <text x="120" y="388" fill="#ffffff" font-family="Arial, Helvetica, sans-serif" font-size="68" font-weight="800">Classification</text>
  <text x="120" y="470" fill="#d6e2ff" font-family="Arial, Helvetica, sans-serif" font-size="34" font-weight="600">
    <tspan x="120" dy="0">ResNet-based image classification</tspan>
    <tspan x="120" dy="46">for fish species recognition</tspan>
  </text>
  <text x="120" y="600" fill="#ffffff" fill-opacity="0.88" font-family="Arial, Helvetica, sans-serif" font-size="30">ResNet</text>
  <text x="390" y="600" fill="#ffffff" fill-opacity="0.88" font-family="Arial, Helvetica, sans-serif" font-size="30">vision</text>
  <text x="670" y="600" fill="#ffffff" fill-opacity="0.88" font-family="Arial, Helvetica, sans-serif" font-size="30">PyTorch</text>
  <g transform="translate(1160 255)">
    <rect width="300" height="360" rx="28" fill="#ffffff" fill-opacity="0.05" stroke="#9bf1ff" stroke-opacity="0.40"/>
    <rect x="34" y="36" width="170" height="18" rx="9" fill="#87c5a4" fill-opacity="0.95"/>
    <rect x="34" y="86" width="232" height="14" rx="7" fill="#ffffff" fill-opacity="0.84"/>
    <rect x="34" y="116" width="196" height="14" rx="7" fill="#ffffff" fill-opacity="0.58"/>
    <rect x="34" y="162" width="86" height="86" rx="16" fill="url(#accent)"/>
    <rect x="142" y="168" width="118" height="16" rx="8" fill="#ffffff" fill-opacity="0.84"/>
    <rect x="142" y="202" width="96" height="16" rx="8" fill="#ffffff" fill-opacity="0.58"/>
    <path d="M34 288 C90 248, 150 248, 205 288 S290 326, 266 284" fill="none" stroke="url(#accent)" stroke-width="10" stroke-linecap="round"/>
    <rect x="34" y="308" width="232" height="40" rx="20" fill="#87c5a4" fill-opacity="0.22" stroke="#87c5a4" stroke-opacity="0.45"/>
    <text x="150" y="334" text-anchor="middle" fill="#dff7eb" font-family="Arial, Helvetica, sans-serif" font-size="18" font-weight="700">project snapshot</text>
  </g>
</svg>
