<svg xmlns="http://www.w3.org/2000/svg" viewBox="0 0 1600 900" role="img">
  <defs>
    <linearGradient id="bg" x1="0" y1="0" x2="1" y2="1">
      <stop offset="0%" stop-color="#0f111a"/>
      <stop offset="100%" stop-color="#181b26"/>
    </linearGradient>
    <linearGradient id="accent" x1="0" y1="0" x2="1" y2="1">
      <stop offset="0%" stop-color="#8d82c4"/>
      <stop offset="100%" stop-color="#ec8d81"/>
    </linearGradient>
  </defs>
  <rect width="1600" height="900" fill="url(#bg)"/>
    <circle cx="1370" cy="160" r="200" fill="#8d82c4" fill-opacity="0.09"/>
    <circle cx="1220" cy="780" r="170" fill="#ec8d81" fill-opacity="0.08"/>
    <circle cx="260" cy="760" r="150" fill="#8d82c4" fill-opacity="0.10"/>
  <rect x="120" y="130" width="250" height="44" rx="22" fill="#9bf1ff" fill-opacity="0.14" stroke="#9bf1ff" stroke-opacity="0.5"/>
  <text x="145" y="159" fill="#9bf1ff" font-family="Arial, Helvetica, sans-serif" font-size="24" font-weight="700">AO Labs Project</text>
  <text x="120" y="305" fill="#ffffff" font-family="Arial, Helvetica, sans-serif" font-size="76" font-weight="800">
    <tspan x="120" dy="0">COVID-19 LSTM Forecasting</tspan>
  </text>
  <text x="120" y="390" fill="#d6e2ff" font-family="Arial, Helvetica, sans-serif" font-size="38" font-weight="600">
    <tspan x="120" dy="0">Time-series forecasting with LSTMs and</tspan>
    <tspan x="120" dy="51">statistical models</tspan>
  </text>
  
  <g transform="translate(120 560)">
    <rect width="144" height="48" rx="24" fill="#ffffff" fill-opacity="0.06" stroke="#d6e2ff" stroke-opacity="0.18"/>
    <text x="72" y="28" text-anchor="middle" dominant-baseline="middle" fill="#ffffff" fill-opacity="0.88" font-family="Arial, Helvetica, sans-serif" font-size="30">LSTM</text>
  </g>
  <g transform="translate(286 560)">
    <rect width="236" height="48" rx="24" fill="#ffffff" fill-opacity="0.06" stroke="#d6e2ff" stroke-opacity="0.18"/>
    <text x="118" y="28" text-anchor="middle" dominant-baseline="middle" fill="#ffffff" fill-opacity="0.88" font-family="Arial, Helvetica, sans-serif" font-size="30">forecasting</text>
  </g>
  <g transform="translate(544 560)">
    <rect width="221" height="48" rx="24" fill="#ffffff" fill-opacity="0.06" stroke="#d6e2ff" stroke-opacity="0.18"/>
    <text x="110" y="28" text-anchor="middle" dominant-baseline="middle" fill="#ffffff" fill-opacity="0.88" font-family="Arial, Helvetica, sans-serif" font-size="30">time series</text>
  </g>
    <g transform="translate(1140 245)">
        <rect width="360" height="410" rx="30" fill="#ffffff" fill-opacity="0.05" stroke="#9bf1ff" stroke-opacity="0.4"/>
        <rect x="34" y="34" width="292" height="52" rx="14" fill="#ffffff" fill-opacity="0.08"/>
        <text x="180" y="68" text-anchor="middle" fill="#8d82c4" font-family="Arial, Helvetica, sans-serif" font-size="26" font-weight="700"></text>
        <rect x="34" y="116" width="184" height="18" rx="9" fill="#ffffff" fill-opacity="0.86"/>
        <rect x="34" y="152" width="132" height="18" rx="9" fill="#ffffff" fill-opacity="0.58"/>
        <rect x="34" y="188" width="210" height="18" rx="9" fill="#ffffff" fill-opacity="0.86"/>
        <rect x="34" y="224" width="156" height="18" rx="9" fill="#ffffff" fill-opacity="0.58"/>
        <path d="M34 292 C94 252, 154 252, 214 292 S334 332, 326 286" fill="none" stroke="url(#accent)" stroke-width="10" stroke-linecap="round"/>
                <rect x="70" y="348" width="220" height="40" rx="20" fill="#ec8d81" fill-opacity="0.22" stroke="#ec8d81" stroke-opacity="0.45"/>
                <text x="180" y="374" text-anchor="middle" fill="#e5faff" font-family="Arial, Helvetica, sans-serif" font-size="20" font-weight="700">project snapshot</text>
  </g>
</svg>
