<?xml version="1.0" standalone="no"?>
<!DOCTYPE svg PUBLIC "-//W3C//DTD SVG 20010904//EN"
 "http://www.w3.org/TR/2001/REC-SVG-20010904/DTD/svg10.dtd">
<svg version="1.0" xmlns="http://www.w3.org/2000/svg"
 width="460.000000pt" height="460.000000pt" viewBox="0 0 460.000000 460.000000"
 preserveAspectRatio="xMidYMid meet">
<metadata>
Created by potrace 1.11, written by Peter Selinger 2001-2013
</metadata>
<g transform="translate(0.000000,460.000000) scale(0.100000,-0.100000)"
fill="#000000" stroke="none">
<path d="M2285 4513 c-22 -2 -109 -10 -194 -18 -85 -8 -192 -15 -239 -15 -75
0 -90 -3 -140 -31 -31 -17 -68 -39 -82 -48 -14 -10 -65 -41 -115 -69 -66 -38
-119 -79 -201 -159 -198 -192 -223 -244 -231 -478 -3 -77 -11 -162 -19 -189
-18 -65 -18 -200 1 -262 17 -55 19 -198 5 -259 -6 -25 -6 -66 1 -110 30 -219
54 -353 66 -377 18 -37 17 -39 -14 -22 -37 19 -68 18 -88 -3 -15 -14 -16 -28
-9 -92 9 -91 9 -95 -1 -241 -7 -102 -5 -124 14 -200 25 -97 80 -195 114 -204
48 -13 86 -7 99 17 12 21 12 21 24 -18 7 -22 13 -52 13 -67 2 -47 80 -270 125
-353 l43 -80 7 -138 c3 -75 9 -150 12 -165 4 -21 -1 -36 -19 -58 -33 -39 -174
-104 -332 -152 -211 -65 -488 -172 -730 -282 -79 -36 -263 -108 -342 -134
l-53 -18 0 -144 0 -144 2300 0 2301 0 -3 107 -3 108 -160 61 c-88 34 -203 80
-255 103 -173 76 -284 120 -332 131 -65 14 -161 53 -383 157 -210 98 -242 118
-282 177 l-28 41 2 190 2 190 45 103 c24 57 47 122 51 145 4 23 18 81 31 129
13 48 24 107 24 132 0 24 3 51 6 60 5 14 8 14 30 0 27 -19 75 -12 96 14 8 9
25 42 38 72 32 77 47 363 23 455 -9 36 -13 79 -10 107 5 43 3 49 -24 72 -25
21 -34 24 -55 15 -14 -5 -35 -19 -46 -32 -18 -20 -19 -21 -14 -2 37 154 45
208 50 330 4 97 2 180 -9 270 -8 72 -15 190 -15 263 0 183 -17 358 -46 476
-28 111 -103 270 -142 301 -14 11 -55 45 -91 75 -127 107 -143 116 -251 149
-58 17 -132 36 -164 41 -32 5 -95 18 -140 29 -113 28 -217 51 -219 49 -1 -1
-20 -3 -42 -5z"/>
</g>
</svg>
